# xmcd CD database file
#
# Track frame offsets:
#	150
#	11922
#	29072
#	48035
#	72842
#	89117
#	102432
#	117845
#	142717
#	160222
#
# Disc length: 2365 seconds
#
# Revision: 0
# Processed by: cddbd v1.5.1PL2 Copyright (c) Steve Scherf et al.
# Submitted via: CDex 1.51
#
DISCID=84093b0a
DTITLE=宮崎 駿 - オルゴールシャワー アニメテーマ 宮崎駿作品
DYEAR=1995
DGENRE=Instrumental
TTITLE0=ナウシカレクイエム （「風の谷のナウシカ」から）
TTITLE1=空から降ってきた少女 （「天空の城 ラピュタ」から）
TTITLE2=冒険飛行家の時代 （「紅の豚」イメージソングから）
TTITLE3=アドリアーノの窓　（「紅の豚」イメージソングから）
TTITLE4=マルコとジーナのテーマ （「紅の豚」イメージソングから）
TTITLE5=さくらんぼの実る頃 （「紅の豚」から）
TTITLE6=時には昔の話を （「紅の豚」主題歌）
TTITLE7=アドリア海の蒼い空 （「紅の豚」イメージソングから）
TTITLE8=セビリア行進曲 （「紅の豚」サウンドトラックから）
TTITLE9=Fighting boatman （「紅の豚」サウンドトラックから）
EXTD=YEAR: 1995
EXTT0=
EXTT1=
EXTT2=
EXTT3=
EXTT4=
EXTT5=
EXTT6=
EXTT7=
EXTT8=
EXTT9=
PLAYORDER=
